<?xml version="1.0" encoding="UTF-8" standalone="no"?><svg xmlns="http://www.w3.org/2000/svg" xmlns:xlink="http://www.w3.org/1999/xlink" contentScriptType="application/ecmascript" contentStyleType="text/css" height="926px" preserveAspectRatio="none" style="width:688px;height:926px;" version="1.1" viewBox="0 0 688 926" width="688px" zoomAndPan="magnify"><defs><filter height="300%" id="ffj36r1rwm1ap" width="300%" x="-1" y="-1"><feGaussianBlur result="blurOut" stdDeviation="2.0"/><feColorMatrix in="blurOut" result="blurOut2" type="matrix" values="0 0 0 0 0 0 0 0 0 0 0 0 0 0 0 0 0 0 .4 0"/><feOffset dx="4.0" dy="4.0" in="blurOut2" result="blurOut3"/><feBlend in="SourceGraphic" in2="blurOut3" mode="normal"/></filter></defs><g><ellipse cx="332" cy="20" fill="#000000" filter="url(#ffj36r1rwm1ap)" rx="10" ry="10" style="stroke: none; stroke-width: 1.0;"/><rect fill="#DEB887" filter="url(#ffj36r1rwm1ap)" height="36.3441" rx="12.5" ry="12.5" style="stroke: #A80036; stroke-width: 1.5;" width="166" x="249" y="94"/><text fill="#000000" font-family="sans-serif" font-size="12" lengthAdjust="spacingAndGlyphs" textLength="146" x="259" y="116.8281">Подождать "poll_interval"</text><rect fill="#DEB887" filter="url(#ffj36r1rwm1ap)" height="36.3441" rx="12.5" ry="12.5" style="stroke: #A80036; stroke-width: 1.5;" width="484" x="90" y="287.8351"/><text fill="#000000" font-family="sans-serif" font-size="12" lengthAdjust="spacingAndGlyphs" textLength="276" x="100" y="310.6631">Подождать "frame_timeout_ms" (по умолчанию</text><text fill="#000000" font-family="sans-serif" font-size="12" font-weight="bold" lengthAdjust="spacingAndGlyphs" textLength="181" x="379" y="310.6631">0 мс или задано протоколом</text><text fill="#000000" font-family="sans-serif" font-size="12" lengthAdjust="spacingAndGlyphs" textLength="4" x="560" y="310.6631">)</text><rect fill="#DEB887" filter="url(#ffj36r1rwm1ap)" height="36.3441" rx="12.5" ry="12.5" style="stroke: #A80036; stroke-width: 1.5;" width="330" x="167" y="344.1792"/><text fill="#000000" font-family="sans-serif" font-size="12" lengthAdjust="spacingAndGlyphs" textLength="270" x="177" y="367.0073">Подождать "guard_interval_us" (по умолчанию</text><text fill="#000000" font-family="sans-serif" font-size="12" font-weight="bold" lengthAdjust="spacingAndGlyphs" textLength="33" x="450" y="367.0073">0 мкс</text><text fill="#000000" font-family="sans-serif" font-size="12" lengthAdjust="spacingAndGlyphs" textLength="4" x="483" y="367.0073">)</text><rect fill="#FEFECE" filter="url(#ffj36r1rwm1ap)" height="36.3441" rx="12.5" ry="12.5" style="stroke: #A80036; stroke-width: 1.5;" width="124" x="270" y="415.5233"/><text fill="#000000" font-family="sans-serif" font-size="12" lengthAdjust="spacingAndGlyphs" textLength="104" x="280" y="438.3514">Записать регистр</text><rect fill="#DEB887" filter="url(#ffj36r1rwm1ap)" height="36.3441" rx="12.5" ry="12.5" style="stroke: #A80036; stroke-width: 1.5;" width="556" x="54" y="471.8674"/><text fill="#000000" font-family="sans-serif" font-size="12" lengthAdjust="spacingAndGlyphs" textLength="489" x="64" y="494.6955">Ожидание подтвержения записи в течение "response_timeout_ms" (по умолчанию</text><text fill="#000000" font-family="sans-serif" font-size="12" font-weight="bold" lengthAdjust="spacingAndGlyphs" textLength="40" x="556" y="494.6955">500 мс</text><text fill="#000000" font-family="sans-serif" font-size="12" lengthAdjust="spacingAndGlyphs" textLength="4" x="596" y="494.6955">)</text><polygon fill="#FEFECE" filter="url(#ffj36r1rwm1ap)" points="224.5,243.8351,439.5,243.8351,451.5,255.8351,439.5,267.8351,224.5,267.8351,212.5,255.8351,224.5,243.8351" style="stroke: #A80036; stroke-width: 1.5;"/><text fill="#000000" font-family="sans-serif" font-size="11" lengthAdjust="spacingAndGlyphs" textLength="215" x="224.5" y="260.103">Есть регистры для записи в устройство?</text><polygon fill="#FEFECE" filter="url(#ffj36r1rwm1ap)" points="251.5,194.3441,412.5,194.3441,424.5,206.3441,412.5,218.3441,251.5,218.3441,239.5,206.3441,251.5,194.3441" style="stroke: #A80036; stroke-width: 1.5;"/><text fill="#000000" font-family="sans-serif" font-size="11" lengthAdjust="spacingAndGlyphs" textLength="12" x="336" y="230.103">да</text><text fill="#000000" font-family="sans-serif" font-size="11" lengthAdjust="spacingAndGlyphs" textLength="161" x="251.5" y="210.6121">Устройство было отключено?</text><text fill="#000000" font-family="sans-serif" font-size="11" lengthAdjust="spacingAndGlyphs" textLength="18" x="424.5" y="203.1211">нет</text><polygon fill="#FEFECE" filter="url(#ffj36r1rwm1ap)" points="332,552.2115,344,564.2115,332,576.2115,320,564.2115,332,552.2115" style="stroke: #A80036; stroke-width: 1.5;"/><rect fill="#DEB887" filter="url(#ffj36r1rwm1ap)" height="36.3441" rx="12.5" ry="12.5" style="stroke: #A80036; stroke-width: 1.5;" width="484" x="90" y="596.2115"/><text fill="#000000" font-family="sans-serif" font-size="12" lengthAdjust="spacingAndGlyphs" textLength="276" x="100" y="619.0396">Подождать "frame_timeout_ms" (по умолчанию</text><text fill="#000000" font-family="sans-serif" font-size="12" font-weight="bold" lengthAdjust="spacingAndGlyphs" textLength="181" x="379" y="619.0396">0 мс или задано протоколом</text><text fill="#000000" font-family="sans-serif" font-size="12" lengthAdjust="spacingAndGlyphs" textLength="4" x="560" y="619.0396">)</text><rect fill="#DEB887" filter="url(#ffj36r1rwm1ap)" height="36.3441" rx="12.5" ry="12.5" style="stroke: #A80036; stroke-width: 1.5;" width="330" x="167" y="652.5556"/><text fill="#000000" font-family="sans-serif" font-size="12" lengthAdjust="spacingAndGlyphs" textLength="270" x="177" y="675.3837">Подождать "guard_interval_us" (по умолчанию</text><text fill="#000000" font-family="sans-serif" font-size="12" font-weight="bold" lengthAdjust="spacingAndGlyphs" textLength="33" x="450" y="675.3837">0 мкс</text><text fill="#000000" font-family="sans-serif" font-size="12" lengthAdjust="spacingAndGlyphs" textLength="4" x="483" y="675.3837">)</text><rect fill="#FEFECE" filter="url(#ffj36r1rwm1ap)" height="36.3441" rx="12.5" ry="12.5" style="stroke: #A80036; stroke-width: 1.5;" width="239" x="212.5" y="708.8997"/><text fill="#000000" font-family="sans-serif" font-size="12" lengthAdjust="spacingAndGlyphs" textLength="219" x="222.5" y="731.7278">Послать запрос на чтение регистров</text><rect fill="#DEB887" filter="url(#ffj36r1rwm1ap)" height="36.3441" rx="12.5" ry="12.5" style="stroke: #A80036; stroke-width: 1.5;" width="532" x="66" y="765.2439"/><text fill="#000000" font-family="sans-serif" font-size="12" lengthAdjust="spacingAndGlyphs" textLength="465" x="76" y="788.0719">Ожидание данных регистров в течение "response_timeout_ms" (по умолчанию</text><text fill="#000000" font-family="sans-serif" font-size="12" font-weight="bold" lengthAdjust="spacingAndGlyphs" textLength="40" x="544" y="788.0719">500 мс</text><text fill="#000000" font-family="sans-serif" font-size="12" lengthAdjust="spacingAndGlyphs" textLength="4" x="584" y="788.0719">)</text><polygon fill="#FEFECE" filter="url(#ffj36r1rwm1ap)" points="259.5,150.3441,404.5,150.3441,416.5,162.3441,404.5,174.3441,259.5,174.3441,247.5,162.3441,259.5,150.3441" style="stroke: #A80036; stroke-width: 1.5;"/><text fill="#000000" font-family="sans-serif" font-size="11" lengthAdjust="spacingAndGlyphs" textLength="145" x="259.5" y="166.6121">Есть регистры для опроса?</text><polygon fill="#FEFECE" filter="url(#ffj36r1rwm1ap)" points="332,50,344,62,332,74,320,62,332,50" style="stroke: #A80036; stroke-width: 1.5;"/><polygon fill="#FEFECE" filter="url(#ffj36r1rwm1ap)" points="332,843.588,332,843.588,344,855.588,332,867.588,332,867.588,320,855.588,332,843.588" style="stroke: #A80036; stroke-width: 1.5;"/><ellipse cx="332" cy="898.588" fill="#FFFFFF" filter="url(#ffj36r1rwm1ap)" rx="11" ry="11" style="stroke: #000000; stroke-width: 1.0;"/><ellipse cx="332" cy="898.588" fill="#000000" rx="6" ry="6" style="stroke: #7F7F7F; stroke-width: 1.0;"/><line style="stroke: #A80036; stroke-width: 1.5;" x1="332" x2="332" y1="324.1792" y2="344.1792"/><polygon fill="#A80036" points="328,334.1792,332,344.1792,336,334.1792,332,338.1792" style="stroke: #A80036; stroke-width: 1.0;"/><line style="stroke: #A80036; stroke-width: 1.5;" x1="332" x2="332" y1="380.5233" y2="415.5233"/><polygon fill="#A80036" points="328,405.5233,332,415.5233,336,405.5233,332,409.5233" style="stroke: #A80036; stroke-width: 1.0;"/><line style="stroke: #A80036; stroke-width: 1.5;" x1="332" x2="332" y1="451.8674" y2="471.8674"/><polygon fill="#A80036" points="328,461.8674,332,471.8674,336,461.8674,332,465.8674" style="stroke: #A80036; stroke-width: 1.0;"/><line style="stroke: #A80036; stroke-width: 1.5;" x1="332" x2="332" y1="267.8351" y2="287.8351"/><polygon fill="#A80036" points="328,277.8351,332,287.8351,336,277.8351,332,281.8351" style="stroke: #A80036; stroke-width: 1.0;"/><line style="stroke: #A80036; stroke-width: 1.5;" x1="332" x2="332" y1="508.2115" y2="520.2115"/><line style="stroke: #A80036; stroke-width: 1.5;" x1="332" x2="622" y1="520.2115" y2="520.2115"/><polygon fill="#A80036" points="618,396.0233,622,386.0233,626,396.0233,622,392.0233" style="stroke: #A80036; stroke-width: 1.5;"/><line style="stroke: #A80036; stroke-width: 1.5;" x1="622" x2="622" y1="255.8351" y2="520.2115"/><line style="stroke: #A80036; stroke-width: 1.5;" x1="622" x2="451.5" y1="255.8351" y2="255.8351"/><polygon fill="#A80036" points="461.5,251.8351,451.5,255.8351,461.5,259.8351,457.5,255.8351" style="stroke: #A80036; stroke-width: 1.0;"/><line style="stroke: #A80036; stroke-width: 1.5;" x1="212.5" x2="42" y1="255.8351" y2="255.8351"/><polygon fill="#A80036" points="38,382.0233,42,392.0233,46,382.0233,42,386.0233" style="stroke: #A80036; stroke-width: 1.5;"/><line style="stroke: #A80036; stroke-width: 1.5;" x1="42" x2="42" y1="255.8351" y2="532.2115"/><line style="stroke: #A80036; stroke-width: 1.5;" x1="42" x2="332" y1="532.2115" y2="532.2115"/><line style="stroke: #A80036; stroke-width: 1.5;" x1="332" x2="332" y1="532.2115" y2="552.2115"/><polygon fill="#A80036" points="328,542.2115,332,552.2115,336,542.2115,332,546.2115" style="stroke: #A80036; stroke-width: 1.0;"/><line style="stroke: #A80036; stroke-width: 1.5;" x1="332" x2="332" y1="218.3441" y2="243.8351"/><polygon fill="#A80036" points="328,233.8351,332,243.8351,336,233.8351,332,237.8351" style="stroke: #A80036; stroke-width: 1.0;"/><line style="stroke: #A80036; stroke-width: 1.5;" x1="424.5" x2="632" y1="206.3441" y2="206.3441"/><polygon fill="#A80036" points="628,376.0233,632,386.0233,636,376.0233,632,380.0233" style="stroke: #A80036; stroke-width: 1.5;"/><line style="stroke: #A80036; stroke-width: 1.5;" x1="632" x2="632" y1="206.3441" y2="564.2115"/><line style="stroke: #A80036; stroke-width: 1.5;" x1="632" x2="344" y1="564.2115" y2="564.2115"/><polygon fill="#A80036" points="354,560.2115,344,564.2115,354,568.2115,350,564.2115" style="stroke: #A80036; stroke-width: 1.0;"/><line style="stroke: #A80036; stroke-width: 1.5;" x1="332" x2="332" y1="576.2115" y2="596.2115"/><polygon fill="#A80036" points="328,586.2115,332,596.2115,336,586.2115,332,590.2115" style="stroke: #A80036; stroke-width: 1.0;"/><line style="stroke: #A80036; stroke-width: 1.5;" x1="332" x2="332" y1="632.5556" y2="652.5556"/><polygon fill="#A80036" points="328,642.5556,332,652.5556,336,642.5556,332,646.5556" style="stroke: #A80036; stroke-width: 1.0;"/><line style="stroke: #A80036; stroke-width: 1.5;" x1="332" x2="332" y1="688.8997" y2="708.8997"/><polygon fill="#A80036" points="328,698.8997,332,708.8997,336,698.8997,332,702.8997" style="stroke: #A80036; stroke-width: 1.0;"/><line style="stroke: #A80036; stroke-width: 1.5;" x1="332" x2="332" y1="745.2439" y2="765.2439"/><polygon fill="#A80036" points="328,755.2439,332,765.2439,336,755.2439,332,759.2439" style="stroke: #A80036; stroke-width: 1.0;"/><line style="stroke: #A80036; stroke-width: 1.5;" x1="332" x2="332" y1="174.3441" y2="194.3441"/><polygon fill="#A80036" points="328,184.3441,332,194.3441,336,184.3441,332,188.3441" style="stroke: #A80036; stroke-width: 1.0;"/><line style="stroke: #A80036; stroke-width: 1.5;" x1="332" x2="332" y1="801.588" y2="811.588"/><line style="stroke: #A80036; stroke-width: 1.5;" x1="332" x2="650" y1="811.588" y2="811.588"/><polygon fill="#A80036" points="646,511.7115,650,501.7115,654,511.7115,650,507.7115" style="stroke: #A80036; stroke-width: 1.5;"/><line style="stroke: #A80036; stroke-width: 1.5;" x1="650" x2="650" y1="162.3441" y2="811.588"/><line style="stroke: #A80036; stroke-width: 1.5;" x1="650" x2="416.5" y1="162.3441" y2="162.3441"/><polygon fill="#A80036" points="426.5,158.3441,416.5,162.3441,426.5,166.3441,422.5,162.3441" style="stroke: #A80036; stroke-width: 1.0;"/><line style="stroke: #A80036; stroke-width: 1.5;" x1="247.5" x2="24" y1="162.3441" y2="162.3441"/><polygon fill="#A80036" points="20,497.7115,24,507.7115,28,497.7115,24,501.7115" style="stroke: #A80036; stroke-width: 1.5;"/><line style="stroke: #A80036; stroke-width: 1.5;" x1="24" x2="24" y1="162.3441" y2="823.588"/><line style="stroke: #A80036; stroke-width: 1.5;" x1="24" x2="332" y1="823.588" y2="823.588"/><line style="stroke: #A80036; stroke-width: 1.5;" x1="332" x2="332" y1="823.588" y2="843.588"/><polygon fill="#A80036" points="328,833.588,332,843.588,336,833.588,332,837.588" style="stroke: #A80036; stroke-width: 1.0;"/><line style="stroke: #A80036; stroke-width: 1.5;" x1="332" x2="332" y1="130.3441" y2="150.3441"/><polygon fill="#A80036" points="328,140.3441,332,150.3441,336,140.3441,332,144.3441" style="stroke: #A80036; stroke-width: 1.0;"/><line style="stroke: #A80036; stroke-width: 1.5;" x1="332" x2="332" y1="74" y2="94"/><polygon fill="#A80036" points="328,84,332,94,336,84,332,88" style="stroke: #A80036; stroke-width: 1.0;"/><line style="stroke: #A80036; stroke-width: 1.5;" x1="344" x2="662" y1="855.588" y2="855.588"/><polygon fill="#A80036" points="658,476.0395,662,466.0395,666,476.0395,662,472.0395" style="stroke: #A80036; stroke-width: 1.5;"/><line style="stroke: #A80036; stroke-width: 1.5;" x1="662" x2="662" y1="62" y2="855.588"/><line style="stroke: #A80036; stroke-width: 1.5;" x1="662" x2="344" y1="62" y2="62"/><polygon fill="#A80036" points="354,58,344,62,354,66,350,62" style="stroke: #A80036; stroke-width: 1.0;"/><line style="stroke: #A80036; stroke-width: 1.5;" x1="332" x2="332" y1="30" y2="50"/><polygon fill="#A80036" points="328,40,332,50,336,40,332,44" style="stroke: #A80036; stroke-width: 1.0;"/><line style="stroke: #A80036; stroke-width: 1.5;" x1="332" x2="332" y1="867.588" y2="887.588"/><polygon fill="#A80036" points="328,877.588,332,887.588,336,877.588,332,881.588" style="stroke: #A80036; stroke-width: 1.0;"/><!--MD5=[24db005f13a461d50cb3a904dad4bc0a]
@startuml Timeouts

start

repeat
    #BurlyWood :Подождать "poll_interval";
    while (Есть регистры для опроса?)
        if (Устройство было отключено?) then (да)
            while (Есть регистры для записи в устройство?)
                #BurlyWood :Подождать "frame_timeout_ms" (по умолчанию **0 мс или задано протоколом**);
                #BurlyWood :Подождать "guard_interval_us" (по умолчанию **0 мкс**);
                :Записать регистр;
                #BurlyWood :Ожидание подтвержения записи в течение "response_timeout_ms" (по умолчанию **500 мс**);
            endwhile
        else (нет)
        endif
        #BurlyWood :Подождать "frame_timeout_ms" (по умолчанию **0 мс или задано протоколом**);
        #BurlyWood :Подождать "guard_interval_us" (по умолчанию **0 мкс**);
        :Послать запрос на чтение регистров;
        #BurlyWood :Ожидание данных регистров в течение "response_timeout_ms" (по умолчанию **500 мс**);
    endwhile
repeat while ()

stop

@enduml

PlantUML version 1.2020.18(Thu Oct 01 00:40:44 YEKT 2020)
(GPL source distribution)
Java Runtime: OpenJDK Runtime Environment
JVM: OpenJDK 64-Bit Server VM
Default Encoding: UTF-8
Language: ru
Country: RU
--></g></svg>